<?xml version="1.0" encoding="utf-8"?>
<!DOCTYPE svg PUBLIC "-//W3C//DTD SVG 1.1//EN" "http://www.w3.org/Graphics/SVG/1.1/DTD/svg11.dtd"><svg version="1.1" xmlns="http://www.w3.org/2000/svg" xmlns:xlink="http://www.w3.org/1999/xlink"  x="0px" y="0px" viewBox="0 0 64 64">
  <defs>
    <!-- 
    COLOR
    fill lime -> #b3b3b3;
    -->
    <style>
      g        { display: none;   }
      g:target { display: inline; }
    </style>

<svg viewBox="0 0 16 16" id="alert-octangle"><use xlink:href="#add_bg" x="0" y="0"/></svg>
<svg viewBox="0 0 500 500" id="radio"><use xlink:href="#radio_svg" x="0" y="0"/></svg>
<svg viewBox="0 0 150 100" id="form"><use xlink:href="#form_svg" x="0" y="0"/></svg>
<svg viewBox="0 0 500 520" id="textarea"><use xlink:href="#textarea_svg" x="0" y="0"/></svg>


  </defs>
  

<!-- add -->
<svg xmlns="http://www.w3.org/2000/svg"  fill="currentColor" id="add_bg"
   class=" fk-mt-3" viewBox="0 0 16 16">
  <path
     d="M4.54.146A.5.5 0 0 1 4.893 0h6.214a.5.5 0 0 1 .353.146l4.394 4.394a.5.5 0 0 1 .146.353v6.214a.5.5 0 0 1-.146.353l-4.394 4.394a.5.5 0 0 1-.353.146H4.893a.5.5 0 0 1-.353-.146L.146 11.46A.5.5 0 0 1 0 11.107V4.893a.5.5 0 0 1 .146-.353L4.54.146zM5.1 1 1 5.1v5.8L5.1 15h5.8l4.1-4.1V5.1L10.9 1H5.1z" />
  <path
    d="M7.002 11a1 1 0 1 1 2 0 1 1 0 0 1-2 0zM7.1 4.995a.905.905 0 1 1 1.8 0l-.35 3.507a.552.552 0 0 1-1.1 0L7.1 4.995z" />
</svg>


<g transform="translate(0.000000,802.000000) scale(0.100000,-0.100000)"
fill="#000000" stroke="none" id="radio_svg">
<path d="M1185 7089 c-157 -10 -272 -45 -412 -126 -200 -116 -341 -295 -418
-533 -37 -113 -46 -313 -20 -441 89 -440 464 -750 908 -749 242 0 466 91 639
258 134 129 213 261 260 434 20 71 23 106 22 238 -1 138 -4 165 -28 245 -115
384 -424 638 -821 677 -16 2 -75 0 -130 -3z m237 -397 c221 -74 377 -294 378
-532 0 -267 -211 -507 -477 -543 -183 -24 -338 28 -467 156 -114 114 -166 238
-166 397 0 259 185 484 445 540 63 14 223 4 287 -18z"/>
<path d="M1172 6530 c-108 -23 -209 -105 -263 -215 -29 -60 -33 -77 -33 -150
0 -73 4 -90 33 -150 43 -87 105 -148 189 -188 57 -27 78 -31 148 -31 72 0 89
4 149 33 87 43 148 105 188 189 27 57 31 78 31 147 0 69 -4 90 -31 147 -74
159 -250 252 -411 218z"/>
<path d="M3024 6331 c-60 -27 -96 -80 -102 -146 -2 -30 -2 -65 2 -79 9 -37 56
-87 101 -107 38 -18 115 -19 1838 -19 1600 0 1802 2 1835 15 75 32 112 86 112
164 0 85 -30 135 -102 172 -36 18 -87 19 -1840 19 -1739 0 -1804 -1 -1844 -19z"/>
<path d="M1118 4855 c-154 -25 -264 -66 -380 -141 -165 -107 -290 -263 -363
-454 -41 -108 -54 -181 -55 -309 0 -135 12 -214 51 -323 151 -429 585 -681
1035 -603 431 76 764 466 764 896 0 359 -186 675 -492 834 -181 94 -379 130
-560 100z m265 -381 c234 -60 400 -264 414 -509 21 -348 -286 -627 -635 -576
-95 14 -218 71 -290 136 -184 166 -235 449 -120 669 41 78 156 195 228 231
122 63 277 82 403 49z"/>
<path d="M3015 4101 c-39 -23 -83 -75 -91 -107 -4 -14 -4 -49 -2 -79 5 -61 39
-114 91 -143 30 -16 140 -17 1832 -20 1231 -2 1811 0 1836 8 133 38 175 217
73 312 -16 15 -42 32 -57 37 -20 8 -584 11 -1840 11 -1747 0 -1813 -1 -1842
-19z"/>

.st0{fill-rule:evenodd;clip-rule:evenodd;}
<g><path id="form_svg" class="st0" d="M8.89,0h105.1c4.9,0,8.89,4,8.89,8.89v102.68c0,4.88-4,8.89-8.89,8.89H8.89c-4.88,0-8.89-4-8.89-8.89V8.89 C-0.01,4,3.99,0,8.89,0L8.89,0L8.89,0z M66.17,91.29h30.49c1.95,0,3.54,1.61,3.54,3.54v6.69c0,1.94-1.61,3.54-3.54,3.54H66.17 c-1.93,0-3.54-1.59-3.54-3.54v-6.69C62.63,92.88,64.22,91.29,66.17,91.29L66.17,91.29z M26.23,60.79h70.42 c1.71,0,3.27,0.7,4.41,1.84l0.01,0.01c1.13,1.13,1.83,2.69,1.83,4.41v8.85c0,1.71-0.7,3.28-1.83,4.41l-0.01,0.01 c-1.13,1.13-2.69,1.83-4.41,1.83H26.23c-1.71,0-3.27-0.7-4.41-1.83l-0.01-0.01c-1.13-1.13-1.83-2.69-1.83-4.41v-8.85 c0-1.71,0.7-3.27,1.83-4.41l0.01-0.01C22.96,61.49,24.52,60.79,26.23,60.79L26.23,60.79z M96.65,66.21H26.23 c-0.23,0-0.44,0.09-0.59,0.24c-0.15,0.15-0.24,0.36-0.24,0.59v8.85c0,0.23,0.09,0.44,0.24,0.59c0.15,0.15,0.36,0.24,0.59,0.24 h70.42c0.23,0,0.44-0.09,0.59-0.24c0.15-0.15,0.24-0.36,0.24-0.59v-8.85c0-0.23-0.09-0.44-0.24-0.59 C97.09,66.3,96.88,66.21,96.65,66.21L96.65,66.21z M26.23,33h70.42c1.71,0,3.27,0.7,4.41,1.83l0.01,0.01 c1.13,1.13,1.83,2.69,1.83,4.41v8.85c0,1.71-0.7,3.28-1.83,4.41l-0.01,0.01c-1.13,1.13-2.69,1.83-4.41,1.83H26.23 c-1.71,0-3.27-0.7-4.41-1.83l-0.01-0.01c-1.13-1.13-1.83-2.69-1.83-4.41v-8.85c0-1.71,0.7-3.27,1.83-4.41l0.01-0.01 C22.96,33.7,24.52,33,26.23,33L26.23,33z M96.65,38.42H26.23c-0.23,0-0.44,0.09-0.59,0.24c-0.15,0.15-0.24,0.36-0.24,0.59v8.85 c0,0.23,0.09,0.44,0.24,0.59c0.15,0.15,0.36,0.24,0.59,0.24h70.42c0.23,0,0.44-0.09,0.59-0.24c0.15-0.15,0.24-0.36,0.24-0.59v-8.85 c0-0.23-0.09-0.44-0.24-0.59C97.09,38.51,96.88,38.42,96.65,38.42L96.65,38.42z M114.8,27.01H8.46v82.6c0,0.68,0.27,1.28,0.72,1.74 c0.46,0.46,1.06,0.72,1.74,0.72H112.3c0.68,0,1.28-0.27,1.74-0.72c0.46-0.46,0.72-1.06,0.72-1.74v-82.6H114.8L114.8,27.01 L114.8,27.01z M105.53,9.64c2.42,0,4.39,1.97,4.39,4.39c0,2.42-1.96,4.39-4.39,4.39c-2.43,0-4.39-1.97-4.39-4.39 C101.13,11.6,103.09,9.64,105.53,9.64L105.53,9.64L105.53,9.64z M75.76,9.64c2.42,0,4.39,1.97,4.39,4.39 c0,2.42-1.97,4.39-4.39,4.39s-4.39-1.97-4.39-4.39C71.36,11.6,73.32,9.64,75.76,9.64L75.76,9.64L75.76,9.64z M90.64,9.64 c2.42,0,4.39,1.97,4.39,4.39c0,2.42-1.97,4.39-4.39,4.39s-4.39-1.97-4.39-4.39C86.25,11.6,88.21,9.64,90.64,9.64L90.64,9.64 L90.64,9.64z"/></g>

<g transform="translate(0.000000,512.000000) scale(0.100000,-0.100000)"
fill="#000000" stroke="none" id="textarea_svg">
<path d="M650 4785 c-337 -68 -587 -328 -639 -665 -9 -56 -11 -466 -9 -1585 4
-1700 -4 -1542 83 -1720 95 -196 251 -332 470 -408 l90 -32 1915 0 1915 0 95
33 c216 75 377 218 471 417 80 171 74 21 74 1755 0 1412 -1 1550 -17 1605 -60
216 -171 372 -345 485 -73 48 -133 75 -243 108 -50 16 -208 17 -1925 19 -1515
1 -1882 -1 -1935 -12z m3783 -320 c173 -45 307 -178 352 -350 13 -52 15 -241
15 -1527 0 -1029 -3 -1483 -11 -1520 -34 -166 -164 -308 -328 -358 -62 -20
-103 -20 -1901 -20 -1798 0 -1839 0 -1901 20 -164 50 -294 192 -328 358 -8 37
-11 491 -11 1520 0 1269 2 1476 15 1525 45 171 177 306 346 351 83 22 3667 23
3752 1z"/>
<path d="M4106 2435 c-31 -11 -153 -127 -534 -507 -288 -288 -502 -509 -514
-532 -52 -100 26 -226 139 -226 24 0 56 6 71 14 42 23 1030 1017 1042 1049 16
44 12 88 -13 131 -38 68 -118 98 -191 71z"/>
<path d="M4106 1635 c-48 -17 -218 -182 -248 -239 -51 -100 26 -226 139 -226
62 0 84 15 200 132 131 132 148 178 100 262 -38 68 -118 98 -191 71z"/>
</g>


</svg>




